<svg width="65" height="35" viewBox="0 0 65 35" fill="none" xmlns="http://www.w3.org/2000/svg">
<path d="M35.2035 29.6484C43.6001 29.6484 50.4069 23.0113 50.4069 14.8242C50.4069 6.63701 43.6001 0 35.2035 0C26.8068 0 20 6.63701 20 14.8242C20 23.0113 26.8068 29.6484 35.2035 29.6484Z" fill="#0D8774"/>
<path d="M0 22.1634C4.82982 22.9825 12.4553 23.0079 21.5311 21.195C21.3105 20.7584 21.0932 20.3885 20.9456 19.9488C15.3701 21.4887 5.44386 22.8349 0 22.1618V22.1634Z" fill="#0D8774"/>
<path d="M21.0456 19.9218C21.0123 19.9313 20.979 19.9393 20.9473 19.9488C21.0948 20.3885 21.3122 20.7568 21.5327 21.195C21.5708 21.187 21.6089 21.1807 21.647 21.1728C33.593 18.0168 37.7422 23.373 46.6386 21.7728C36.5426 21.9236 33.9929 16.1213 21.0472 19.9218H21.0456Z" fill="#FCFCFC"/>
<path d="M49.136 18.2723C49.0805 18.2628 49.136 18.2723 49.0805 18.2628C48.9996 19.4153 48.4617 20.5758 47.7905 21.5172C54.1198 21.1441 56.3808 19.0185 64.9313 18.1231C58.6338 17.2722 57.9325 19.9233 49.136 18.2739V18.2723Z" fill="#0D8774"/>
<path d="M24.3444 11.1699C24.3444 11.1699 29.5931 10.1698 33.7914 13.421C24.9949 9.92053 22.9957 13.2702 21.0964 19.3726C28.2444 14.9879 40.6728 21.9126 47.6874 21.5236C47.6954 21.5236 47.7049 21.5236 47.7144 21.5236C47.7414 21.5236 47.7668 21.5205 47.7921 21.5189C48.4633 20.5775 49.044 19.4678 49.2519 18.2962C38.0944 16.1452 35.0639 2.81324 24.3459 11.1731L24.3444 11.1699Z" fill="#FCFCFC"/>
<path d="M56.4331 18.1724C60.4823 15.4212 62.2308 15.9213 63.1304 17.3723C60.9805 17.1834 56.4331 18.1724 56.4331 18.1724Z" fill="#0D8774"/>
<path d="M18.7212 27.6736L19.121 28.0737L20.0461 27.7229L21.0964 28.723L20.6712 29.5739L21.0964 29.9993L22.3467 26.3735L18.7228 27.6736H18.7212ZM20.5332 27.499L21.5946 27.1244L21.2202 28.1864L20.5332 27.499Z" fill="#0D8774"/>
<path d="M23.7938 27.8245L21.7946 30.4486L23.094 31.5488L23.4193 31.1487L22.4562 30.2661L24.1936 28.1864L23.7938 27.8245Z" fill="#0D8774"/>
<path d="M24.8441 29.1484L25.0948 28.7484C25.0948 28.7484 26.4943 29.6739 27.0686 29.8485L26.9179 30.2993L26.0928 29.8993L24.668 32.4742L24.1936 32.1996L25.6311 29.6866L24.8441 29.1484Z" fill="#0D8774"/>
<path d="M28.3682 30.3486L25.6312 32.9744L26.0438 33.2252L26.918 32.4743L28.043 32.9252L28.0937 33.9507L28.6443 34.1507L28.3698 30.3502L28.3682 30.3486ZM28.0176 32.4743L27.137 32.0743L28.0176 31.3234V32.4743Z" fill="#0D8774"/>
<path d="M32.5918 31.5488L32.3665 34.9H32.8409L32.9662 33.3252C32.9662 33.3252 34.491 33.6998 34.5402 32.4743C34.591 31.2487 32.5902 31.5488 32.5902 31.5488H32.5918ZM33.0408 32.8743V31.8996C33.0408 31.8996 33.9611 31.6488 34.0658 32.387C34.1705 33.1252 33.0408 32.8743 33.0408 32.8743Z" fill="#0D8774"/>
<path d="M35.1908 31.517L35.3399 35H37.2154V34.4253L35.8905 34.4507L35.7398 31.517H35.1908Z" fill="#0D8774"/>
<path d="M38.4895 31.074L37.6152 34.7745H38.2658L38.4911 33.6744L39.816 33.4236L40.3665 34.2983L40.8917 34.0982L38.4927 31.0724L38.4895 31.074ZM38.5387 33.2584L38.7132 32.0996L39.4383 33.0505L38.5387 33.26V33.2584Z" fill="#0D8774"/>
<path d="M42.0627 30.6375C41.5122 30.2994 40.7887 30.7756 41.2885 31.3884C42.0009 31.8599 42.6387 31.1884 43.2131 32.1758C43.7002 33.2601 42.0754 34.2189 41.2631 33.2601L41.5138 32.9172C41.5138 32.9172 42.1389 33.4633 42.5514 33.0632C42.8894 32.7505 42.8259 32.3758 42.5768 32.225C42.1024 31.8996 40.8029 32.2996 40.5649 31.2376C40.3269 30.1756 41.8263 29.712 42.4023 30.3248L42.0643 30.6375H42.0627Z" fill="#0D8774"/>
<path d="M42.4006 29.8247L42.6751 30.212L43.3875 29.7358L44.9742 32.2742L45.4248 31.9488L43.9127 29.4484L44.6505 29.0246L44.3745 28.5737L42.4006 29.8247Z" fill="#0D8774"/>
<path d="M44.8995 28.261L45.3501 27.899L47.3858 30.6486L46.9368 31.0122L44.8995 28.261Z" fill="#0D8774"/>
<path d="M48.1236 25.6733L48.5108 26.0734C47.3985 26.1988 46.6496 27.1354 47.2986 28.1864C47.9491 29.2373 49.8483 28.8992 49.7976 27.3863L50.2101 27.799C50.0594 29.2992 47.7111 30.112 46.7861 28.3737C45.8119 26.2607 48.1236 25.6733 48.1236 25.6733Z" fill="#0D8774"/>
</svg>
